<svg xmlns="http://www.w3.org/2000/svg" xmlns:svg="http://www.w3.org/2000/svg" xmlns:xlink="http://www.w3.org/1999/xlink" version="1.0" height="750pt" width="1500pt" viewBox="-105 -3 1508 756" ><defs><style type="text/css">
            @font-face {
                font-family: 'lt_regular';
                src: url('https://app.creately.com/diagram/assets/fonts/lato/lt-regular-webfont.woff2') format('woff2'),
                    url('https://app.creately.com/diagram/assets/fonts/lato/lt-regular-webfont.woff') format('woff');
                font-weight: normal;
                font-style: normal;
            }
            @font-face {
                font-family: 'noto_regular';
                src: url('https://app.creately.com/diagram/assets/fonts/noto/noto-regular.woff') format('woff'),
                     url('https://app.creately.com/diagram/assets/fonts/noto/noto-regular.woff2') format('woff2');
                font-weight: normal;
                font-style: normal;
            }
        p {
            margin: 0;
        }
        </style></defs><defs><style>
            span{ display: inline-block; }
        </style></defs><g id="NzPV7dem73u"><g transform="translate(800 90)"><rect x="0" y="0" width="149.99999999999997" height="190" rx="2" ry="2" fill="rgb(53,98,96)" stroke="#0b1515" stroke-width="2" stroke-linecap="round" stroke-linejoin="round" stroke-dasharray="0 0"/><path d="M 0,30 L 149.99999999999997,30 M 0,140 L 149.99999999999997,140" fill="rgb(53,98,96)" stroke="#0b1515" stroke-width="2" stroke-linecap="round" stroke-linejoin="round" stroke-dasharray="0 0"/></g><g transform="translate(839.5, 95) rotate(0, 35.5, 0)" width="71" height="20"><text text-decoration="none" x="0" fill="#fdf6f6" font-size="11pt" font-family="lt_regular"  y="16">SportsClub</text><text text-decoration="none" x="71" fill="#4b4b4b" font-size="10pt" font-family="noto_regular"  y="16"></text></g><g transform="translate(810, 125) rotate(0, 0, 0)" width="130" height="100"><text text-decoration="none" x="0" fill="#fdf6f6" font-size="11pt" font-family="lt_regular"  y="16">+ClubName:&#160;</text><text text-decoration="none" x="85" fill="#fdf6f6" font-size="11pt" font-family="lt_regular"  y="16">string</text><text text-decoration="none" x="121" fill="#fdf6f6" font-size="11pt" font-family="lt_regular"  y="16"></text><text text-decoration="none" x="0" fill="#fdf6f6" font-size="11pt" font-family="lt_regular"  y="36">+ClubAdressr:&#160;</text><text text-decoration="none" x="0" fill="#fdf6f6" font-size="11pt" font-family="lt_regular"  y="56">string</text><text text-decoration="none" x="36" fill="#fdf6f6" font-size="11pt" font-family="lt_regular"  y="56"></text><text text-decoration="none" x="0" fill="#fdf6f6" font-size="11pt" font-family="lt_regular"  y="76">+Logo:&#160;</text><text text-decoration="none" x="51" fill="#fdf6f6" font-size="11pt" font-family="lt_regular"  y="76">stiring</text><text text-decoration="none" x="91" fill="#fdf6f6" font-size="11pt" font-family="lt_regular"  y="76"></text><text text-decoration="none" x="0" fill="#fdf6f6" font-size="11pt" font-family="lt_regular"  y="96">+Activites</text><text text-decoration="none" x="66" fill="#fdf6f6" font-size="11pt" font-family="lt_regular"  y="96"></text><text text-decoration="none" x="0" fill="#fdf6f6" font-size="11pt" font-family="lt_regular"  y="116">+Location</text><text text-decoration="none" x="66" fill="#4b4b4b" font-size="10pt" font-family="noto_regular"  y="116"></text></g><g transform="translate(810, 235) rotate(0, 0, 0)" width="73" height="20"><text text-decoration="none" x="0" fill="#fdf6f6" font-size="11pt" font-family="lt_regular"  y="16">+manages()</text><text text-decoration="none" x="73" fill="#4b4b4b" font-size="10pt" font-family="noto_regular"  y="16"></text></g></g><g id="guTMBQQHLPa"><g transform="translate(150 100)"><rect x="0" y="0" width="150" height="150" rx="2" ry="2" fill="rgb(129,40,33)" stroke="#250a07" stroke-width="2" stroke-linecap="round" stroke-linejoin="round" stroke-dasharray="0 0"/><path d="M 0,30 L 150,30 M 0,80 L 150,80" fill="rgb(129,40,33)" stroke="#250a07" stroke-width="2" stroke-linecap="round" stroke-linejoin="round" stroke-dasharray="0 0"/></g><g transform="translate(203, 105) rotate(0, 22, 0)" width="44" height="20"><text text-decoration="none" x="0" fill="#fdf6f6" font-size="11pt" font-family="lt_regular"  y="16">Person</text><text text-decoration="none" x="45" fill="#4b4b4b" font-size="10pt" font-family="noto_regular"  y="16"></text></g><g transform="translate(160, 135) rotate(0, 0, 0)" width="98" height="40"><text text-decoration="none" x="0" fill="#fdf6f6" font-size="11pt" font-family="lt_regular"  y="16">+name:&#160;</text><text text-decoration="none" x="52" fill="#fdf6f6" font-size="11pt" font-family="lt_regular"  y="16">String</text><text text-decoration="none" x="90" fill="#fdf6f6" font-size="11pt" font-family="lt_regular"  y="16"></text><text text-decoration="none" x="0" fill="#fdf6f6" font-size="11pt" font-family="lt_regular"  y="36">+Adress:&#160;</text><text text-decoration="none" x="60" fill="#fdf6f6" font-size="11pt" font-family="lt_regular"  y="36">String</text><text text-decoration="none" x="98" fill="#4b4b4b" font-size="10pt" font-family="noto_regular"  y="36"></text></g><g transform="translate(160, 185) rotate(0, 0, 0)" width="70" height="60"><text text-decoration="none" x="0" fill="#fdf6f6" font-size="11pt" font-family="lt_regular"  y="16">-register()</text><text text-decoration="none" x="63" fill="#fdf6f6" font-size="11pt" font-family="lt_regular"  y="16"></text><text text-decoration="none" x="0" fill="#fdf6f6" font-size="11pt" font-family="lt_regular"  y="36">-CheckIn()</text><text text-decoration="none" x="67" fill="#fdf6f6" font-size="11pt" font-family="lt_regular"  y="36"></text><text text-decoration="none" x="0" fill="#fdf6f6" font-size="11pt" font-family="lt_regular"  y="56">-Payment()</text><text text-decoration="none" x="71" fill="#4b4b4b" font-size="10pt" font-family="noto_regular"  y="56"></text></g></g><g id="8kBUUDnZNBm"><g transform="translate(-100 90)"><rect x="0" y="0" width="149.99999999999997" height="170" rx="2" ry="2" fill="rgb(209,78,58)" stroke="#71261b" stroke-width="2" stroke-linecap="round" stroke-linejoin="round" stroke-dasharray="0 0"/><path d="M 0,30 L 149.99999999999997,30 M 0,100 L 149.99999999999997,100" fill="rgb(209,78,58)" stroke="#71261b" stroke-width="2" stroke-linecap="round" stroke-linejoin="round" stroke-dasharray="0 0"/></g><g transform="translate(-56.500000000000014, 95) rotate(0, 31.5, 0)" width="63" height="20"><text text-decoration="none" x="0" fill="#fdf6f6" font-size="11pt" font-family="lt_regular"  y="16">Employee</text><text text-decoration="none" x="66" fill="#4b4b4b" font-size="10pt" font-family="noto_regular"  y="16"></text></g><g transform="translate(-90, 125) rotate(0, 0, 0)" width="76" height="60"><text text-decoration="none" x="0" fill="#fdf6f6" font-size="11pt" font-family="lt_regular"  y="16">+ID:&#160;</text><text text-decoration="none" x="32" fill="#fdf6f6" font-size="11pt" font-family="lt_regular"  y="16">int</text><text text-decoration="none" x="49" fill="#fdf6f6" font-size="11pt" font-family="lt_regular"  y="16"></text><text text-decoration="none" x="0" fill="#fdf6f6" font-size="11pt" font-family="lt_regular"  y="36">+Job:string-</text><text text-decoration="none" x="0" fill="#fdf6f6" font-size="11pt" font-family="lt_regular"  y="56"></text><text text-decoration="none" x="0" fill="#fdf6f6" font-size="11pt" font-family="lt_regular"  y="76">-alary:int</text><text text-decoration="none" x="58" fill="#4b4b4b" font-size="10pt" font-family="noto_regular"  y="76"></text></g><g transform="translate(-89.99999999999999, 195) rotate(0, 0, 0)" width="108" height="60"><text text-decoration="none" x="0" fill="#fdf6f6" font-size="11pt" font-family="lt_regular"  y="16">+addEmployee()</text><text text-decoration="none" x="106" fill="#fdf6f6" font-size="11pt" font-family="lt_regular"  y="16"></text><text text-decoration="none" x="0" fill="#fdf6f6" font-size="11pt" font-family="lt_regular"  y="36">+IncreaseSalary()</text><text text-decoration="none" x="0" fill="#fdf6f6" font-size="11pt" font-family="lt_regular"  y="56"></text><text text-decoration="none" x="0" fill="#fdf6f6" font-size="11pt" font-family="lt_regular"  y="76">-EditEmployee()</text><text text-decoration="none" x="106" fill="#4b4b4b" font-size="10pt" font-family="noto_regular"  y="76"></text></g></g><g id="q4oejGo8x8B"><g transform="translate(550 250)"><rect x="0" y="0" width="200" height="200" rx="2" ry="2" fill="rgb(132,175,181)" stroke="#4c696d" stroke-width="2" stroke-linecap="round" stroke-linejoin="round" stroke-dasharray="0 0"/><path d="M 0,30 L 200,30 M 0,120 L 200,120" fill="rgb(132,175,181)" stroke="#4c696d" stroke-width="2" stroke-linecap="round" stroke-linejoin="round" stroke-dasharray="0 0"/></g><g transform="translate(560, 255) rotate(0, 0, 0)" width="58" height="20"><text text-decoration="none" x="0" fill="#fdf6f6" font-size="11pt" font-family="lt_regular"  y="16">Stadiums</text><text text-decoration="none" x="58" fill="#4b4b4b" font-size="10pt" font-family="noto_regular"  y="16"></text></g><g transform="translate(560, 285) rotate(0, 0, 0)" width="165" height="80"><text text-decoration="none" x="0" fill="#fdf6f6" font-size="11pt" font-family="lt_regular"  y="16">+name:&#160;</text><text text-decoration="none" x="52" fill="#fdf6f6" font-size="11pt" font-family="lt_regular"  y="16">string</text><text text-decoration="none" x="88" fill="#fdf6f6" font-size="11pt" font-family="lt_regular"  y="16"></text><text text-decoration="none" x="0" fill="#fdf6f6" font-size="11pt" font-family="lt_regular"  y="36">+capacity:&#160;</text><text text-decoration="none" x="70" fill="#fdf6f6" font-size="11pt" font-family="lt_regular"  y="36">int</text><text text-decoration="none" x="87" fill="#fdf6f6" font-size="11pt" font-family="lt_regular"  y="36"></text><text text-decoration="none" x="0" fill="#fdf6f6" font-size="11pt" font-family="lt_regular"  y="56">+districtOfStadium:&#160;</text><text text-decoration="none" x="0" fill="#fdf6f6" font-size="11pt" font-family="lt_regular"  y="76">string</text><text text-decoration="none" x="36" fill="#fdf6f6" font-size="11pt" font-family="lt_regular"  y="76"></text><text text-decoration="none" x="0" fill="#fdf6f6" font-size="11pt" font-family="lt_regular"  y="96">+AdressOfStadium:&#160;</text><text text-decoration="none" x="129" fill="#fdf6f6" font-size="11pt" font-family="lt_regular"  y="96">string</text><text text-decoration="none" x="165" fill="#4b4b4b" font-size="10pt" font-family="noto_regular"  y="96"></text></g><g transform="translate(560, 375) rotate(0, 0, 0)" width="99" height="60"><text text-decoration="none" x="0" fill="#fdf6f6" font-size="11pt" font-family="lt_regular"  y="16">+mangedBy()</text><text text-decoration="none" x="86" fill="#fdf6f6" font-size="11pt" font-family="lt_regular"  y="16"></text><text text-decoration="none" x="0" fill="#fdf6f6" font-size="11pt" font-family="lt_regular"  y="36">+addStadium()</text><text text-decoration="none" x="92" fill="#fdf6f6" font-size="11pt" font-family="lt_regular"  y="36"></text><text text-decoration="none" x="0" fill="#fdf6f6" font-size="11pt" font-family="lt_regular"  y="56">-editMembers()</text><text text-decoration="none" x="100" fill="#4b4b4b" font-size="10pt" font-family="noto_regular"  y="56"></text></g></g><g id="D2Zo4F4XSIA"><mask id="4d93d" x="286" y="124" width="528" height="28" maskUnits="userSpaceOnUse"><rect x="286" y="124" width="528" height="28" fill="white" />undefinedundefined</mask><g mask="url(#4d93d)"><path d="M 300,138 L 800,138" fill="none" stroke="#9A9A9A" stroke-width="2" stroke-linecap="round" stroke-linejoin="round"/><path d="M 793,132.25 L 800,138 L 793,143.75 L 786,138 L 793,132.25 Z" fill="rgb(255,255,255)" stroke="#9A9A9A" stroke-width="2" stroke-linecap="round" stroke-linejoin="round"/></g>undefinedundefined</g><g id="DMg3db7ZuEj"><mask id="185d1" x="636" y="171" width="178" height="93" maskUnits="userSpaceOnUse"><rect x="636" y="171" width="178" height="93" fill="white" />undefinedundefined</mask><g mask="url(#185d1)"><path d="M 650,250 L 650,195 Q 650,185 660,185 L 800,185" fill="none" stroke="#9A9A9A" stroke-width="2" stroke-linecap="round" stroke-linejoin="round"/><path d="M 793,179.25 L 800,185 L 793,190.75 L 786,185 L 793,179.25 Z" fill="rgb(255,255,255)" stroke="#9A9A9A" stroke-width="2" stroke-linecap="round" stroke-linejoin="round"/></g>undefinedundefined</g><g id="ctKwzoeCO6w"><g transform="translate(-40 350)"><rect x="0" y="0" width="150" height="200" rx="2" ry="2" fill="rgb(209,78,58)" stroke="#71261b" stroke-width="2" stroke-linecap="round" stroke-linejoin="round" stroke-dasharray="0 0"/><path d="M 0,30 L 150,30 M 0,120 L 150,120" fill="rgb(209,78,58)" stroke="#71261b" stroke-width="2" stroke-linecap="round" stroke-linejoin="round" stroke-dasharray="0 0"/></g><g transform="translate(-30, 355) rotate(0, 0, 0)" width="54" height="20"><text text-decoration="none" x="0" fill="#fdf6f6" font-size="11pt" font-family="lt_regular"  y="16">Member</text><text text-decoration="none" x="55" fill="#4b4b4b" font-size="10pt" font-family="noto_regular"  y="16"></text></g><g transform="translate(-29.999999999999996, 385) rotate(0, 0, 0)" width="117" height="80"><text text-decoration="none" x="0" fill="#fdf6f6" font-size="11pt" font-family="lt_regular"  y="16">+number:&#160;</text><text text-decoration="none" x="66" fill="#fdf6f6" font-size="11pt" font-family="lt_regular"  y="16">int</text><text text-decoration="none" x="83" fill="#fdf6f6" font-size="11pt" font-family="lt_regular"  y="16"></text><text text-decoration="none" x="0" fill="#fdf6f6" font-size="11pt" font-family="lt_regular"  y="36">-CardNumber&#160;</text><text text-decoration="none" x="92" fill="#fdf6f6" font-size="11pt" font-family="lt_regular"  y="36">;&#160;</text><text text-decoration="none" x="100" fill="#fdf6f6" font-size="11pt" font-family="lt_regular"  y="36">int</text><text text-decoration="none" x="117" fill="#fdf6f6" font-size="11pt" font-family="lt_regular"  y="36"></text><text text-decoration="none" x="0" fill="#fdf6f6" font-size="11pt" font-family="lt_regular"  y="56">+Activties:&#160;</text><text text-decoration="none" x="74" fill="#fdf6f6" font-size="11pt" font-family="lt_regular"  y="56">String</text><text text-decoration="none" x="112" fill="#fdf6f6" font-size="11pt" font-family="lt_regular"  y="56"></text><text text-decoration="none" x="0" fill="#fdf6f6" font-size="11pt" font-family="lt_regular"  y="76">+Pin:&#160;</text><text text-decoration="none" x="38" fill="#fdf6f6" font-size="11pt" font-family="lt_regular"  y="76">Int</text><text text-decoration="none" x="55" fill="#4b4b4b" font-size="10pt" font-family="noto_regular"  y="76"></text></g><g transform="translate(-29.999999999999993, 475) rotate(0, 0, 0)" width="116" height="60"><text text-decoration="none" x="0" fill="#fdf6f6" font-size="11pt" font-family="lt_regular"  y="16">+VerifyPassword()</text><text text-decoration="none" x="0" fill="#fdf6f6" font-size="11pt" font-family="lt_regular"  y="36"></text><text text-decoration="none" x="0" fill="#fdf6f6" font-size="11pt" font-family="lt_regular"  y="56">+ShareAcitvity()</text><text text-decoration="none" x="104" fill="#fdf6f6" font-size="11pt" font-family="lt_regular"  y="56"></text><text text-decoration="none" x="0" fill="#fdf6f6" font-size="11pt" font-family="lt_regular"  y="76">+AddSports()</text><text text-decoration="none" x="84" fill="#4b4b4b" font-size="10pt" font-family="noto_regular"  y="76"></text></g></g><g id="jqaOSkQPBbl"><g transform="translate(340 350)"><rect x="0" y="0" width="149.99999999999997" height="150" rx="2" ry="2" fill="rgb(209,78,58)" stroke="#71261b" stroke-width="2" stroke-linecap="round" stroke-linejoin="round" stroke-dasharray="0 0"/><path d="M 0,30 L 149.99999999999997,30 M 0,120 L 149.99999999999997,120" fill="rgb(209,78,58)" stroke="#71261b" stroke-width="2" stroke-linecap="round" stroke-linejoin="round" stroke-dasharray="0 0"/></g><g transform="translate(350, 355) rotate(0, 0, 0)" width="40" height="20"><text text-decoration="none" x="0" fill="#fdf6f6" font-size="11pt" font-family="lt_regular"  y="16">Player</text><text text-decoration="none" x="41" fill="#4b4b4b" font-size="10pt" font-family="noto_regular"  y="16"></text></g><g transform="translate(350, 385) rotate(0, 0, 0)" width="123" height="80"><text text-decoration="none" x="0" fill="#fdf6f6" font-size="11pt" font-family="lt_regular"  y="16">+TeamID:&#160;</text><text text-decoration="none" x="68" fill="#fdf6f6" font-size="11pt" font-family="lt_regular"  y="16">string</text><text text-decoration="none" x="104" fill="#fdf6f6" font-size="11pt" font-family="lt_regular"  y="16"></text><text text-decoration="none" x="0" fill="#fdf6f6" font-size="11pt" font-family="lt_regular"  y="36">+T-ShirtLogo:string</text><text text-decoration="none" x="0" fill="#fdf6f6" font-size="11pt" font-family="lt_regular"  y="56"></text><text text-decoration="none" x="0" fill="#fdf6f6" font-size="11pt" font-family="lt_regular"  y="76">+position:string</text><text text-decoration="none" x="102" fill="#fdf6f6" font-size="11pt" font-family="lt_regular"  y="76"></text><text text-decoration="none" x="0" fill="#fdf6f6" font-size="11pt" font-family="lt_regular"  y="96">+Score:int</text><text text-decoration="none" x="67" fill="#4b4b4b" font-size="10pt" font-family="noto_regular"  y="96"></text></g><g transform="translate(350, 475) rotate(0, 0, 0)" width="87" height="20"><text text-decoration="none" x="0" fill="#fdf6f6" font-size="11pt" font-family="lt_regular"  y="16">+TotalPoints()</text><text text-decoration="none" x="92" fill="#4b4b4b" font-size="10pt" font-family="noto_regular"  y="16"></text></g></g><g id="mlVoqukbTr0"><g transform="translate(130 350)"><rect x="0" y="0" width="190" height="200" rx="2" ry="2" fill="rgb(209,78,58)" stroke="#71261b" stroke-width="2" stroke-linecap="round" stroke-linejoin="round" stroke-dasharray="0 0"/><path d="M 0,30 L 190,30 M 0,120 L 190,120" fill="rgb(209,78,58)" stroke="#71261b" stroke-width="2" stroke-linecap="round" stroke-linejoin="round" stroke-dasharray="0 0"/></g><g transform="translate(140, 355) rotate(0, 0, 0)" width="122" height="20"><text text-decoration="none" x="0" fill="#fdf6f6" font-size="11pt" font-family="lt_regular"  y="16">Management&#160;</text><text text-decoration="none" x="0" fill="#fdf6f6" font-size="11pt" font-family="lt_regular"  y="36">Team</text><text text-decoration="none" x="36" fill="#4b4b4b" font-size="10pt" font-family="noto_regular"  y="36"></text></g><g transform="translate(140, 385) rotate(0, 0, 0)" width="163" height="80"><text text-decoration="none" x="0" fill="#fdf6f6" font-size="11pt" font-family="lt_regular"  y="16">+Years&#160;</text><text text-decoration="none" x="48" fill="#fdf6f6" font-size="11pt" font-family="lt_regular"  y="16">of&#160;</text><text text-decoration="none" x="66" fill="#fdf6f6" font-size="11pt" font-family="lt_regular"  y="16">experience&#160;</text><text text-decoration="none" x="141" fill="#fdf6f6" font-size="11pt" font-family="lt_regular"  y="16">:&#160;</text><text text-decoration="none" x="0" fill="#fdf6f6" font-size="11pt" font-family="lt_regular"  y="36">int</text><text text-decoration="none" x="17" fill="#fdf6f6" font-size="11pt" font-family="lt_regular"  y="36"></text><text text-decoration="none" x="0" fill="#fdf6f6" font-size="11pt" font-family="lt_regular"  y="56">+position:&#160;</text><text text-decoration="none" x="70" fill="#fdf6f6" font-size="11pt" font-family="lt_regular"  y="56">string</text><text text-decoration="none" x="106" fill="#fdf6f6" font-size="11pt" font-family="lt_regular"  y="56"></text><text text-decoration="none" x="0" fill="#fdf6f6" font-size="11pt" font-family="lt_regular"  y="76">-JobID:&#160;</text><text text-decoration="none" x="52" fill="#fdf6f6" font-size="11pt" font-family="lt_regular"  y="76">int</text><text text-decoration="none" x="69" fill="#fdf6f6" font-size="11pt" font-family="lt_regular"  y="76"></text><text text-decoration="none" x="0" fill="#fdf6f6" font-size="11pt" font-family="lt_regular"  y="96">-Salary:&#160;</text><text text-decoration="none" x="53" fill="#fdf6f6" font-size="11pt" font-family="lt_regular"  y="96">Int</text><text text-decoration="none" x="70" fill="#4b4b4b" font-size="10pt" font-family="noto_regular"  y="96"></text></g><g transform="translate(140, 475) rotate(0, 0, 0)" width="83" height="60"><text text-decoration="none" x="0" fill="#fdf6f6" font-size="11pt" font-family="lt_regular"  y="16">+modifies()</text><text text-decoration="none" x="73" fill="#fdf6f6" font-size="11pt" font-family="lt_regular"  y="16"></text><text text-decoration="none" x="0" fill="#fdf6f6" font-size="11pt" font-family="lt_regular"  y="36">+manages()</text><text text-decoration="none" x="73" fill="#fdf6f6" font-size="11pt" font-family="lt_regular"  y="36"></text><text text-decoration="none" x="0" fill="#fdf6f6" font-size="11pt" font-family="lt_regular"  y="56">+doFinance()</text><text text-decoration="none" x="84" fill="#4b4b4b" font-size="10pt" font-family="noto_regular"  y="56"></text></g></g><g id="BeBanrlvs1g"><g><path d="M 225,350 L 225,250" fill="none" stroke="#7E7E7E" stroke-width="2" stroke-linecap="round" stroke-linejoin="round"/><path d="M 225,250 L 219.25,258.69565217391306 L 230.75,258.69565217391306 Z" fill="rgb(126,126,126)" stroke="#7E7E7E" stroke-width="2" stroke-linecap="round" stroke-linejoin="round"/></g></g><g id="m8UxTQ5AWpT"><g><path d="M 415,350 L 415,310 Q 415,300 405,300 L 339,300 L 273,300 Q 263,300 263,290 L 263,250" fill="none" stroke="#7E7E7E" stroke-width="2" stroke-linecap="round" stroke-linejoin="round"/><path d="M 263,250 L 257.25,258.69565217391306 L 268.75,258.69565217391306 Z" fill="rgb(126,126,126)" stroke="#7E7E7E" stroke-width="2" stroke-linecap="round" stroke-linejoin="round"/></g></g><g id="tzAYOV2OucD"><g><path d="M 35,350 L 35,309 Q 35,299 45,299 L 112,299 L 178,299 Q 188,299 188,289 L 188,250" fill="none" stroke="#7E7E7E" stroke-width="2" stroke-linecap="round" stroke-linejoin="round"/><path d="M 188,250 L 182.25,258.69565217391306 L 193.75,258.69565217391306 Z" fill="rgb(126,126,126)" stroke="#7E7E7E" stroke-width="2" stroke-linecap="round" stroke-linejoin="round"/></g></g><g id="vdeyxDwIuHl"><g><path d="M 50,175 L 150,175" fill="none" stroke="#7E7E7E" stroke-width="2" stroke-linecap="round" stroke-linejoin="round"/><path d="M 150,175 L 141.30434782608697,169.25 L 141.30434782608697,180.75 Z" fill="rgb(126,126,126)" stroke="#7E7E7E" stroke-width="2" stroke-linecap="round" stroke-linejoin="round"/></g></g><g id="jZJZObQn8SL"><g transform="translate(550 600)"><rect x="0" y="0" width="200" height="150" rx="2" ry="2" fill="rgb(164,183,98)" stroke="#69753e" stroke-width="2" stroke-linecap="round" stroke-linejoin="round" stroke-dasharray="0 0"/><path d="M 0,30 L 200,30 M 0,100 L 200,100" fill="rgb(164,183,98)" stroke="#69753e" stroke-width="2" stroke-linecap="round" stroke-linejoin="round" stroke-dasharray="0 0"/></g><g transform="translate(596, 605) rotate(0, 54, 0)" width="108" height="20"><text text-decoration="none" x="27" fill="#fdf6f6" font-size="11pt" font-family="lt_regular"  y="16">Football&#160;</text><text text-decoration="none" x="28" fill="#fdf6f6" font-size="11pt" font-family="lt_regular"  y="36">Stadium</text><text text-decoration="none" x="80" fill="#4b4b4b" font-size="10pt" font-family="noto_regular"  y="36"></text></g><g transform="translate(560, 635) rotate(0, 0, 0)" width="158" height="60"><text text-decoration="none" x="0" fill="#fdf6f6" font-size="11pt" font-family="lt_regular"  y="16">+&#160;</text><text text-decoration="none" x="13" fill="#fdf6f6" font-size="11pt" font-family="lt_regular"  y="16">NumbersOfPlayers:&#160;</text><text text-decoration="none" x="0" fill="#fdf6f6" font-size="11pt" font-family="lt_regular"  y="36">int</text><text text-decoration="none" x="17" fill="#fdf6f6" font-size="11pt" font-family="lt_regular"  y="36"></text><text text-decoration="none" x="0" fill="#fdf6f6" font-size="11pt" font-family="lt_regular"  y="56">+numberOfCoach:int</text><text text-decoration="none" x="137" fill="#fdf6f6" font-size="11pt" font-family="lt_regular"  y="56"></text><text text-decoration="none" x="0" fill="#fdf6f6" font-size="11pt" font-family="lt_regular"  y="76">+record:string</text><text text-decoration="none" x="91" fill="#4b4b4b" font-size="10pt" font-family="noto_regular"  y="76"></text></g><g transform="translate(555, 705) rotate(0, 0, 0)" width="0" height="18"><text text-decoration="none" x="0" fill="#4b4b4b" font-size="10pt" font-family="noto_regular"  y="15"></text></g></g><g id="QcRsBxzjcD1"><mask id="e08bc" x="402" y="486" width="162" height="166" maskUnits="userSpaceOnUse"><rect x="402" y="486" width="162" height="166" fill="white" /><rect x="513.0002088416597" y="624.8880604807524" width="14" height="26" fill="black" /><rect x="395" y="517" width="42" height="26" fill="black" /></mask><g mask="url(#e08bc)"><path d="M 550,638 L 425.9999303861135,637.5373131730826 Q 416.00000000000006,637.5 416.00000000000006,627.5 L 416,500" fill="none" stroke="#9A9A9A" stroke-width="2" stroke-linecap="round" stroke-linejoin="round"/></g><g transform="translate(516.0002088416597, 627.8880604807524)" width="8" height="20"><text text-decoration="none" x="0" fill="#4b4b4b" font-size="11pt" font-family="lt_regular"  y="16">1</text><text text-decoration="none" x="9" fill="#4b4b4b" font-size="10pt" font-family="noto_regular"  y="16"></text></g><g transform="translate(398, 520)" width="36" height="20"><text text-decoration="none" x="0" fill="#4b4b4b" font-size="11pt" font-family="lt_regular"  y="16">6--12</text><text text-decoration="none" x="39" fill="#4b4b4b" font-size="10pt" font-family="noto_regular"  y="16"></text></g></g><g id="yqsiiNkRpnk"><mask id="e7696" x="636" y="436" width="28" height="178" maskUnits="userSpaceOnUse"><rect x="636" y="436" width="28" height="178" fill="white" /><rect x="643" y="557" width="14" height="26" fill="black" /><rect x="643" y="467" width="14" height="26" fill="black" /></mask><g mask="url(#e7696)"><path d="M 650,600 L 650,450" fill="none" stroke="#9A9A9A" stroke-width="2" stroke-linecap="round" stroke-linejoin="round"/></g><g transform="translate(646, 560)" width="8" height="20"><text text-decoration="none" x="0" fill="#4b4b4b" font-size="11pt" font-family="lt_regular"  y="16">1</text><text text-decoration="none" x="9" fill="#4b4b4b" font-size="10pt" font-family="noto_regular"  y="16"></text></g><g transform="translate(646, 470)" width="8" height="20"><text text-decoration="none" x="0" fill="#4b4b4b" font-size="11pt" font-family="lt_regular"  y="16">1</text><text text-decoration="none" x="9" fill="#4b4b4b" font-size="10pt" font-family="noto_regular"  y="16"></text></g></g><g id="gayCnvKuWm5"><g transform="translate(1200 0)"><rect x="0" y="0" width="200" height="200.00000000000003" rx="2" ry="2" fill="rgb(132,175,181)" stroke="#4c696d" stroke-width="2" stroke-linecap="round" stroke-linejoin="round" stroke-dasharray="0 0"/><path d="M 0,30 L 200,30 M 0,140 L 200,140" fill="rgb(132,175,181)" stroke="#4c696d" stroke-width="2" stroke-linecap="round" stroke-linejoin="round" stroke-dasharray="0 0"/></g><g transform="translate(1254, 5) rotate(0, 46, 0)" width="92" height="20"><text text-decoration="none" x="0" fill="#fdf6f6" font-size="11pt" font-family="lt_regular"  y="16">Championship</text><text text-decoration="none" x="92" fill="#4b4b4b" font-size="10pt" font-family="noto_regular"  y="16"></text></g><g transform="translate(1210, 35) rotate(0, 0, 0)" width="140" height="100"><text text-decoration="none" x="0" fill="#fdf6f6" font-size="11pt" font-family="lt_regular"  y="16">+name:&#160;</text><text text-decoration="none" x="52" fill="#fdf6f6" font-size="11pt" font-family="lt_regular"  y="16">String&#160;</text><text text-decoration="none" x="94" fill="#fdf6f6" font-size="11pt" font-family="lt_regular"  y="16"></text><text text-decoration="none" x="0" fill="#fdf6f6" font-size="11pt" font-family="lt_regular"  y="36">+nameOfTeam:&#160;</text><text text-decoration="none" x="0" fill="#fdf6f6" font-size="11pt" font-family="lt_regular"  y="56">String</text><text text-decoration="none" x="38" fill="#fdf6f6" font-size="11pt" font-family="lt_regular"  y="56"></text><text text-decoration="none" x="0" fill="#fdf6f6" font-size="11pt" font-family="lt_regular"  y="76">+StadiumNum:int</text><text text-decoration="none" x="113" fill="#fdf6f6" font-size="11pt" font-family="lt_regular"  y="76"></text><text text-decoration="none" x="0" fill="#fdf6f6" font-size="11pt" font-family="lt_regular"  y="96">+payment:&#160;</text><text text-decoration="none" x="73" fill="#fdf6f6" font-size="11pt" font-family="lt_regular"  y="96">int</text><text text-decoration="none" x="90" fill="#fdf6f6" font-size="11pt" font-family="lt_regular"  y="96"></text><text text-decoration="none" x="0" fill="#fdf6f6" font-size="11pt" font-family="lt_regular"  y="116">+Prizes:&#160;</text><text text-decoration="none" x="56" fill="#fdf6f6" font-size="11pt" font-family="lt_regular"  y="116">string</text><text text-decoration="none" x="92" fill="#4b4b4b" font-size="10pt" font-family="noto_regular"  y="116"></text></g><g transform="translate(1210, 145) rotate(0, 0, 0)" width="87" height="40"><text text-decoration="none" x="0" fill="#fdf6f6" font-size="11pt" font-family="lt_regular"  y="16">+GivenTo()</text><text text-decoration="none" x="74" fill="#fdf6f6" font-size="11pt" font-family="lt_regular"  y="16"></text><text text-decoration="none" x="0" fill="#fdf6f6" font-size="11pt" font-family="lt_regular"  y="36">-managedby()</text><text text-decoration="none" x="88" fill="#4b4b4b" font-size="10pt" font-family="noto_regular"  y="36"></text></g></g><g id="HzJdd3HsqB6"><g transform="translate(1200 250)"><rect x="0" y="0" width="149.99999999999997" height="150" rx="2" ry="2" fill="rgb(132,175,181)" stroke="#4c696d" stroke-width="2" stroke-linecap="round" stroke-linejoin="round" stroke-dasharray="0 0"/><path d="M 0,30 L 149.99999999999997,30 M 0,80 L 149.99999999999997,80" fill="rgb(132,175,181)" stroke="#4c696d" stroke-width="2" stroke-linecap="round" stroke-linejoin="round" stroke-dasharray="0 0"/></g><g transform="translate(1210, 255) rotate(0, 0, 0)" width="73" height="20"><text text-decoration="none" x="0" fill="#fdf6f6" font-size="11pt" font-family="lt_regular"  y="16">Closed&#160;</text><text text-decoration="none" x="0" fill="#fdf6f6" font-size="11pt" font-family="lt_regular"  y="36">Hall</text><text text-decoration="none" x="26" fill="#4b4b4b" font-size="10pt" font-family="noto_regular"  y="36"></text></g><g transform="translate(1210, 285) rotate(0, 0, 0)" width="103" height="40"><text text-decoration="none" x="0" fill="#fdf6f6" font-size="11pt" font-family="lt_regular"  y="16">+name:&#160;</text><text text-decoration="none" x="52" fill="#fdf6f6" font-size="11pt" font-family="lt_regular"  y="16">string</text><text text-decoration="none" x="88" fill="#fdf6f6" font-size="11pt" font-family="lt_regular"  y="16"></text><text text-decoration="none" x="0" fill="#fdf6f6" font-size="11pt" font-family="lt_regular"  y="36">+location:&#160;</text><text text-decoration="none" x="0" fill="#fdf6f6" font-size="11pt" font-family="lt_regular"  y="56">string</text><text text-decoration="none" x="36" fill="#4b4b4b" font-size="10pt" font-family="noto_regular"  y="56"></text></g><g transform="translate(1210, 335) rotate(0, 0, 0)" width="78" height="40"><text text-decoration="none" x="0" fill="#fdf6f6" font-size="11pt" font-family="lt_regular"  y="16">+ruledBy()</text><text text-decoration="none" x="68" fill="#fdf6f6" font-size="11pt" font-family="lt_regular"  y="16"></text><text text-decoration="none" x="0" fill="#fdf6f6" font-size="11pt" font-family="lt_regular"  y="36">+maintains()</text><text text-decoration="none" x="78" fill="#4b4b4b" font-size="10pt" font-family="noto_regular"  y="36"></text></g></g><g id="zuv4qRpWE1l"><g transform="translate(770 480)"><rect x="0" y="0" width="210" height="100" rx="2" ry="2" fill="rgb(132,175,181)" stroke="#4c696d" stroke-width="2" stroke-linecap="round" stroke-linejoin="round" stroke-dasharray="0 0"/><path d="M 0,30 L 210,30" fill="rgb(132,175,181)" stroke="#4c696d" stroke-width="2" stroke-linecap="round" stroke-linejoin="round" stroke-dasharray="0 0"/></g><g transform="translate(780, 485) rotate(0, 0, 0)" width="50" height="20"><text text-decoration="none" x="0" fill="#fdf6f6" font-size="11pt" font-family="lt_regular"  y="16">Finance</text><text text-decoration="none" x="50" fill="#4b4b4b" font-size="10pt" font-family="noto_regular"  y="16"></text></g><g transform="translate(780, 515) rotate(0, 0, 0)" width="185" height="40"><text text-decoration="none" x="0" fill="#fdf6f6" font-size="11pt" font-family="lt_regular"  y="16">+FootballerPayment:boolean</text><text text-decoration="none" x="0" fill="#fdf6f6" font-size="11pt" font-family="lt_regular"  y="36"></text><text text-decoration="none" x="0" fill="#fdf6f6" font-size="11pt" font-family="lt_regular"  y="56">-paidQuantity:int</text><text text-decoration="none" x="111" fill="#4b4b4b" font-size="10pt" font-family="noto_regular"  y="56"></text></g></g><g id="jufcXm54Jea"><mask id="e9010" x="861" y="266" width="28" height="228" maskUnits="userSpaceOnUse"><rect x="861" y="266" width="28" height="228" fill="white" /><rect x="860" y="437" width="30" height="26" fill="black" /><rect x="868" y="297" width="14" height="26" fill="black" /></mask><g mask="url(#e9010)"><path d="M 875,480 L 875,280" fill="none" stroke="#9A9A9A" stroke-width="2" stroke-linecap="round" stroke-linejoin="round"/></g><g transform="translate(863, 440)" width="24" height="20"><text text-decoration="none" x="0" fill="#4b4b4b" font-size="11pt" font-family="lt_regular"  y="16">0..1</text><text text-decoration="none" x="26" fill="#4b4b4b" font-size="10pt" font-family="noto_regular"  y="16"></text></g><g transform="translate(871, 300)" width="8" height="20"><text text-decoration="none" x="0" fill="#4b4b4b" font-size="11pt" font-family="lt_regular"  y="16">1</text><text text-decoration="none" x="9" fill="#4b4b4b" font-size="10pt" font-family="noto_regular"  y="16"></text></g></g><g id="hR5LxWOsClO"><mask id="a28b8" x="899" y="36" width="315" height="68" maskUnits="userSpaceOnUse"><rect x="899" y="36" width="315" height="68" fill="white" />undefinedundefined</mask><g mask="url(#a28b8)"><path d="M 1200,50 L 922.5,50.00000000000001 Q 912.5,50.00000000000001 912.6249902355192,59.999218841540824 L 913,90" fill="none" stroke="#9A9A9A" stroke-width="2" stroke-linecap="round" stroke-linejoin="round"/><path d="M 918.75,83 L 913,90 L 907.25,83 L 913,76 L 918.75,83 Z" fill="rgb(255,255,255)" stroke="#9A9A9A" stroke-width="2" stroke-linecap="round" stroke-linejoin="round"/></g>undefinedundefined</g><g id="uoqU0DlhVaF"><mask id="8af46" x="936" y="219" width="278" height="120" maskUnits="userSpaceOnUse"><rect x="936" y="219" width="278" height="120" fill="white" />undefinedundefined</mask><g mask="url(#8af46)"><path d="M 1200,325 L 1085,325 Q 1075,325 1075,315 L 1075,279 L 1075,242.5 Q 1075,232.5 1065.00007999904,232.53999968000383 L 950,233" fill="none" stroke="#9A9A9A" stroke-width="2" stroke-linecap="round" stroke-linejoin="round"/><path d="M 957,238.75 L 950,233 L 957,227.25 L 964,233 L 957,238.75 Z" fill="rgb(255,255,255)" stroke="#9A9A9A" stroke-width="2" stroke-linecap="round" stroke-linejoin="round"/></g>undefinedundefined</g><g id="5hLKgm8TxRe"><g transform="translate(1200 550)"><rect x="0" y="0" width="149.99999999999994" height="100" rx="2" ry="2" fill="rgb(164,183,98)" stroke="#69753e" stroke-width="2" stroke-linecap="round" stroke-linejoin="round" stroke-dasharray="0 0"/><path d="M 0,30 L 149.99999999999994,30" fill="rgb(164,183,98)" stroke="#69753e" stroke-width="2" stroke-linecap="round" stroke-linejoin="round" stroke-dasharray="0 0"/></g><g transform="translate(1210, 555) rotate(0, 0, 0)" width="98" height="20"><text text-decoration="none" x="0" fill="#fdf6f6" font-size="11pt" font-family="lt_regular"  y="16">Swimming&#160;</text><text text-decoration="none" x="0" fill="#fdf6f6" font-size="11pt" font-family="lt_regular"  y="36">Pool</text><text text-decoration="none" x="31" fill="#4b4b4b" font-size="10pt" font-family="noto_regular"  y="36"></text></g><g transform="translate(1210, 585) rotate(0, 0, 0)" width="117" height="60"><text text-decoration="none" x="0" fill="#fdf6f6" font-size="11pt" font-family="lt_regular"  y="16">+EnterAuth:&#160;</text><text text-decoration="none" x="0" fill="#fdf6f6" font-size="11pt" font-family="lt_regular"  y="36">string</text><text text-decoration="none" x="36" fill="#fdf6f6" font-size="11pt" font-family="lt_regular"  y="36"></text><text text-decoration="none" x="0" fill="#fdf6f6" font-size="11pt" font-family="lt_regular"  y="56">+AgeLimit:int</text><text text-decoration="none" x="89" fill="#fdf6f6" font-size="11pt" font-family="lt_regular"  y="56"></text><text text-decoration="none" x="0" fill="#fdf6f6" font-size="11pt" font-family="lt_regular"  y="76">-coach:string</text><text text-decoration="none" x="84" fill="#4b4b4b" font-size="10pt" font-family="noto_regular"  y="76"></text></g></g><g id="lglgWA871Ga"><mask id="6c61a" x="1261" y="386" width="28" height="178" maskUnits="userSpaceOnUse"><rect x="1261" y="386" width="28" height="178" fill="white" /><rect x="1268" y="507" width="14" height="26" fill="black" /><rect x="1268" y="417" width="14" height="26" fill="black" /></mask><g mask="url(#6c61a)"><path d="M 1275,550 L 1275,400" fill="none" stroke="#9A9A9A" stroke-width="2" stroke-linecap="round" stroke-linejoin="round"/></g><g transform="translate(1271, 510)" width="8" height="20"><text text-decoration="none" x="0" fill="#4b4b4b" font-size="11pt" font-family="lt_regular"  y="16">3</text><text text-decoration="none" x="9" fill="#4b4b4b" font-size="10pt" font-family="noto_regular"  y="16"></text></g><g transform="translate(1271, 420)" width="8" height="20"><text text-decoration="none" x="0" fill="#4b4b4b" font-size="11pt" font-family="lt_regular"  y="16">1</text><text text-decoration="none" x="9" fill="#4b4b4b" font-size="10pt" font-family="noto_regular"  y="16"></text></g></g></svg>